<svg xmlns="http://www.w3.org/2000/svg" xmlns:xlink="http://www.w3.org/1999/xlink" viewBox="0 0 1113.74 1123.19"><defs><style>.cls-1{fill:url(#未命名的渐变_44);}.cls-2{fill:url(#未命名的渐变_43);}.cls-3{fill:url(#未命名的渐变_48);}.cls-4{fill:url(#未命名的渐变_46);}.cls-5{fill:url(#未命名的渐变_45);}.cls-6{fill:url(#未命名的渐变_47);}.cls-7{fill:#fff;}</style><linearGradient id="未命名的渐变_44" x1="7441.83" y1="6784.77" x2="7692.08" y2="7218.2" gradientUnits="userSpaceOnUse"><stop offset="0" stop-color="#fff"/><stop offset="0.08" stop-color="#fff" stop-opacity="0.96"/><stop offset="0.22" stop-color="#fff" stop-opacity="0.87"/><stop offset="0.4" stop-color="#fff" stop-opacity="0.71"/><stop offset="0.6" stop-color="#fff" stop-opacity="0.5"/><stop offset="0.83" stop-color="#fff" stop-opacity="0.22"/><stop offset="1" stop-color="#fff" stop-opacity="0"/></linearGradient><linearGradient id="未命名的渐变_43" x1="6675.11" y1="7266.67" x2="6944.53" y2="6800.03" xlink:href="#未命名的渐变_44"/><linearGradient id="未命名的渐变_48" x1="7467.81" y1="7691.14" x2="6915.15" y2="7691.14" gradientUnits="userSpaceOnUse"><stop offset="0" stop-color="#fff"/><stop offset="0.1" stop-color="#fff" stop-opacity="0.98"/><stop offset="0.22" stop-color="#fff" stop-opacity="0.91"/><stop offset="0.36" stop-color="#fff" stop-opacity="0.81"/><stop offset="0.51" stop-color="#fff" stop-opacity="0.66"/><stop offset="0.68" stop-color="#fff" stop-opacity="0.47"/><stop offset="0.84" stop-color="#fff" stop-opacity="0.24"/><stop offset="1" stop-color="#fff" stop-opacity="0"/></linearGradient><linearGradient id="未命名的渐变_46" x1="7471.45" y1="7224.21" x2="7381.63" y2="7068.62" xlink:href="#未命名的渐变_44"/><linearGradient id="未命名的渐变_45" x1="7044.28" y1="7027" x2="6927.52" y2="7229.24" xlink:href="#未命名的渐变_44"/><linearGradient id="未命名的渐变_47" x1="7084.31" y1="7489.59" x2="7296.13" y2="7489.59" xlink:href="#未命名的渐变_44"/></defs><g id="rang"><path class="cls-1" d="M7431.24,6847.91c.12,3.19.21,6.39.21,9.62s-.09,6.42-.21,9.61v38.32c98.79,67.84,166.64,177.44,178.09,303.35h99c-13.62-182.4-122.53-338.25-277.11-417.93Z" transform="translate(-6642.63 -6637.91)"/><path class="cls-2" d="M6784.32,7221c8-130.22,76.21-244.14,177.16-314.28a238.94,238.94,0,0,1,5.16-118.53c-168.29,84.3-283.84,258.33-283.84,459.37q0,19.72,1.47,39.1A237.68,237.68,0,0,1,6784.32,7221Z" transform="translate(-6642.63 -6637.91)"/><path class="cls-3" d="M7295.14,7683.48v-34.56a415.07,415.07,0,0,1-274.24-27.73,237.07,237.07,0,0,1-105.75,56.13,513.71,513.71,0,0,0,552.66,6.16Z" transform="translate(-6642.63 -6637.91)"/><path class="cls-4" d="M7432.23,7094.86h-96a207.15,207.15,0,0,1,63.45,114h98.49a301.86,301.86,0,0,0-65.89-153.66Z" transform="translate(-6642.63 -6637.91)"/><path class="cls-5" d="M7010.85,7007.7a302.77,302.77,0,0,0-114.65,203.46,235.93,235.93,0,0,1,92.2,34.27A207.32,207.32,0,0,1,7088.58,7070,238.58,238.58,0,0,1,7010.85,7007.7Z" transform="translate(-6642.63 -6637.91)"/><path class="cls-6" d="M7296.13,7429.2a207.64,207.64,0,0,1-197.77,1.55c.32,5.09.51,10.22.51,15.39a237.23,237.23,0,0,1-14.56,82.07,304.16,304.16,0,0,0,211.82,5.27Z" transform="translate(-6642.63 -6637.91)"/></g><g id="y"><rect class="cls-7" x="674.51" y="588.62" width="157.05" height="439.24"/><rect class="cls-7" x="956.7" y="588.62" width="157.05" height="157.05"/><rect class="cls-7" x="956.7" y="870.81" width="157.05" height="157.05"/></g><g id="x"><path class="cls-7" d="M6977.67,6857.53c0,99.55,66.24,183.61,157.05,210.55V6647C7043.91,6673.91,6977.67,6758,6977.67,6857.53Z" transform="translate(-6642.63 -6637.91)"/><path class="cls-7" d="M7259.86,7068.08v9.06h157.05v-157h-9.06A220.08,220.08,0,0,1,7259.86,7068.08Z" transform="translate(-6642.63 -6637.91)"/><path class="cls-7" d="M7259.86,6637.91V6647a220.08,220.08,0,0,1,148,148h9.06v-157Z" transform="translate(-6642.63 -6637.91)"/></g><g id="z"><circle class="cls-7" cx="219.62" cy="808.24" r="219.62"/></g></svg>